<?xml version="1.0" encoding="UTF-8" standalone="no"?> <!-- Created with Vectornator for iOS (http://vectornator.io/) --><!DOCTYPE svg PUBLIC "-//W3C//DTD SVG 1.1//EN" "http://www.w3.org/Graphics/SVG/1.1/DTD/svg11.dtd">
<svg style="fill-rule:evenodd;clip-rule:evenodd;stroke-linecap:round;stroke-linejoin:round;" xmlns:vectornator="http://vectornator.io" xmlns:xlink="http://www.w3.org/1999/xlink" xmlns="http://www.w3.org/2000/svg" xml:space="preserve" version="1.1" viewBox="0 0 1024 1024">
<metadata>
<vectornator:setting key="DimensionsVisible" value="1"/>
<vectornator:setting key="SnapToGrid" value="0"/>
<vectornator:setting key="SnapToPoints" value="0"/>
<vectornator:setting key="GuidesVisible" value="1"/>
<vectornator:setting key="RulersVisible" value="1"/>
<vectornator:setting key="SnapToEdges" value="0"/>
<vectornator:setting key="DisplayWhiteBackground" value="0"/>
<vectornator:setting key="SnapToGuides" value="1"/>
<vectornator:setting key="GridSpacing" value="36"/>
<vectornator:setting key="Units" value="Pixels"/>
<vectornator:setting key="DynamicGuides" value="0"/>
<vectornator:setting key="New" value="1"/>
</metadata>
<defs>
<linearGradient y1="461.297" id="LinearGradient" x1="347.784" y2="461.297" x2="442.614" gradientUnits="userSpaceOnUse" gradientTransform="matrix(8.61129 0 0 8.61129 -2891.17 -3460.36)">
<stop stop-color="#bd22b8" offset="0"/>
<stop stop-color="#0ed7b5" offset="1"/>
</linearGradient>
<linearGradient y1="16" id="LinearGradient_2" x1="3.5" y2="48" x2="59" gradientUnits="userSpaceOnUse" gradientTransform="matrix(12.4719 0 0 12.4719 112.901 110.406)">
<stop stop-color="#ffffff" offset="0"/>
<stop stop-color="#ffffff" offset="0.99134"/>
</linearGradient>
</defs>
<g id="Layer 1" vectornator:layerName="Layer 1">
<path d="M103.696+512C103.696+286.5+286.5+103.696+512+103.696C737.5+103.696+920.304+286.5+920.304+512C920.304+737.5+737.5+920.304+512+920.304C286.5+920.304+103.696+737.5+103.696+512Z" opacity="1" fill="url(#LinearGradient)"/>
<path d="M512+309.956C422.203+309.956+366.079+354.855+343.63+444.652C377.304+399.753+416.59+382.916+461.489+394.141C487.106+400.545+505.416+419.13+525.683+439.702C558.698+473.214+596.91+512+680.37+512C770.167+512+826.291+467.101+848.74+377.304C815.066+422.203+775.78+439.04+730.881+427.815C705.264+421.411+686.954+402.826+666.687+382.254C633.672+348.742+595.46+309.956+512+309.956ZM343.63+512C253.833+512+197.709+556.899+175.26+646.696C208.934+601.797+248.22+584.96+293.119+596.185C318.736+602.589+337.046+621.174+357.313+641.746C390.328+675.258+428.54+714.044+512+714.044C601.797+714.044+657.921+669.145+680.37+579.348C646.696+624.247+607.41+641.084+562.511+629.859C536.894+623.455+518.584+604.87+498.317+584.298C465.302+550.786+427.09+512+343.63+512Z" fill-rule="evenodd" fill="url(#LinearGradient_2)" opacity="1"/>
</g>
</svg>
